<?xml version="1.0" encoding="UTF-8"?>
<svg xmlns="http://www.w3.org/2000/svg" xmlns:xlink="http://www.w3.org/1999/xlink" width="37pt" height="37pt" viewBox="0 0 37 37" version="1.1">
<g id="surface1606809">
<path style="fill-rule:nonzero;fill:rgb(100%,83.921569%,72.941176%);fill-opacity:1;stroke-width:10;stroke-linecap:butt;stroke-linejoin:round;stroke:rgb(80%,80%,80%);stroke-opacity:1;stroke-miterlimit:10;" d="M 85.507735 168.357018 C 39.742274 168.357018 2.639287 131.254031 2.639287 85.507735 C 2.639287 39.742274 39.742274 2.639287 85.507735 2.639287 C 131.254031 2.639287 168.357018 39.742274 168.357018 85.507735 C 168.357018 131.254031 131.254031 168.357018 85.507735 168.357018 Z M 85.507735 168.357018 " transform="matrix(0.203825,0,0,0.203825,1.079236,1.079236)"/>
<path style="fill-rule:nonzero;fill:rgb(100%,100%,100%);fill-opacity:1;stroke-width:10;stroke-linecap:butt;stroke-linejoin:round;stroke:rgb(80%,80%,80%);stroke-opacity:1;stroke-miterlimit:10;" d="M 126.922794 95.760885 C 125.887897 99.919639 124.239727 103.867581 122.074108 107.470557 L 127.957691 118.758604 L 118.835263 127.881032 L 107.585545 121.997449 C 103.94424 124.182233 99.996298 125.849567 95.78005 126.884465 L 91.985426 138.977432 L 79.049209 138.977432 L 75.254585 126.884465 C 71.038337 125.849567 67.07123 124.182233 63.44909 121.997449 L 52.199372 127.881032 L 43.076943 118.758604 L 48.960527 107.547216 C 46.794908 103.94424 45.146738 99.996298 44.111841 95.818379 L 31.961379 91.985426 L 31.961379 79.087538 L 44.1885 75.254585 C 45.223397 71.076666 46.890732 67.205384 49.037186 63.621572 L 43.076943 52.237701 L 52.237701 43.076943 L 63.564078 49.037186 C 67.090395 46.890732 71.000007 45.280891 75.120432 44.245994 L 78.991715 31.961379 L 91.908767 31.961379 L 95.78005 44.245994 C 99.919639 45.280891 103.810086 46.890732 107.336403 49.037186 L 118.758604 43.076943 L 127.881032 52.199372 L 121.939955 63.583243 C 124.105574 67.167054 125.753743 71.076666 126.788641 75.216256 L 138.996597 79.049209 L 138.996597 91.947096 Z M 113.71827 85.565229 C 113.71827 69.96511 101.08869 57.316364 85.507735 57.316364 C 69.907616 57.316364 57.239705 69.96511 57.239705 85.565229 C 57.239705 101.165349 69.907616 113.814094 85.507735 113.814094 C 101.08869 113.814094 113.71827 101.203678 113.71827 85.565229 Z M 113.71827 85.565229 " transform="matrix(0.203825,0,0,0.203825,1.079236,1.079236)"/>
<path style=" stroke:none;fill-rule:nonzero;fill:rgb(100%,83.921569%,72.941176%);fill-opacity:1;" d="M 35.394531 18.507812 C 35.394531 9.179688 27.832031 1.617188 18.507812 1.617188 C 9.179688 1.617188 1.617188 9.179688 1.617188 18.507812 C 1.617188 27.832031 9.179688 35.394531 18.507812 35.394531 C 27.832031 35.394531 35.394531 27.832031 35.394531 18.507812 Z M 35.394531 18.507812 "/>
<path style=" stroke:none;fill-rule:nonzero;fill:rgb(100%,100%,100%);fill-opacity:1;" d="M 29.410156 19.820312 L 29.410156 17.191406 L 26.921875 16.410156 C 26.710938 15.566406 26.375 14.769531 25.933594 14.039062 L 27.144531 11.71875 L 25.285156 9.859375 L 22.957031 11.074219 C 22.238281 10.636719 21.445312 10.308594 20.601562 10.097656 L 19.8125 7.59375 L 17.179688 7.59375 L 16.390625 10.097656 C 15.550781 10.308594 14.753906 10.636719 14.035156 11.074219 L 11.726562 9.859375 L 9.859375 11.726562 L 11.074219 14.046875 C 10.636719 14.777344 10.296875 15.566406 10.085938 16.417969 L 7.59375 17.199219 L 7.59375 19.828125 L 10.070312 20.609375 C 10.28125 21.460938 10.617188 22.265625 11.058594 23 L 9.859375 25.285156 L 11.71875 27.144531 L 14.011719 25.945312 C 14.75 26.390625 15.558594 26.730469 16.417969 26.941406 L 17.191406 29.40625 L 19.828125 29.40625 L 20.601562 26.941406 C 21.460938 26.730469 22.265625 26.390625 23.007812 25.945312 L 25.300781 27.144531 L 27.160156 25.285156 L 25.960938 22.984375 C 26.402344 22.25 26.738281 21.445312 26.949219 20.597656 Z M 18.507812 24.277344 C 15.328125 24.277344 12.746094 21.699219 12.746094 18.519531 C 12.746094 15.339844 15.328125 12.761719 18.507812 12.761719 C 21.683594 12.761719 24.257812 15.339844 24.257812 18.519531 C 24.257812 21.707031 21.683594 24.277344 18.507812 24.277344 Z M 18.507812 24.277344 "/>
</g>
</svg>
