<?xml version="1.0" encoding="iso-8859-1"?>
<!-- Generator: Adobe Illustrator 19.0.0, SVG Export Plug-In . SVG Version: 6.00 Build 0)  -->
<svg version="1.1" id="Layer_1" xmlns="http://www.w3.org/2000/svg" xmlns:xlink="http://www.w3.org/1999/xlink" x="0px" y="0px"
	 viewBox="-100 -100 712 712" style="enable-background:new 0 0 512 512;" xml:space="preserve">
<g>
	<path style="fill:#50A5DC;" d="M289.382,396c0,30.24,3.266,49.107,9.796,56.602c9.19,10.159,23.34,15.239,42.451,15.239h17.053V502
		H150.054v-34.159h17.416c20.8,0,35.557-6.288,44.265-18.868c5.318-7.738,7.982-25.398,7.982-52.974V45.46h-39.478
		c-22.984,0-39.311,1.695-48.982,5.079c-12.58,4.598-23.346,13.425-32.292,26.487C90.014,90.089,84.69,107.748,83.001,130H49.55
		l5.805-120h401.654l5.442,120h-33.45c-2.665-20.318-6.293-34.832-10.885-43.539c-7.5-14.026-17.478-24.367-29.933-31.022
		c-12.461-6.65-28.846-9.978-49.164-9.978h-49.637L289.382,396L289.382,396z"/>
	<g>
		<path d="M467,9.547C466.757,4.206,462.356,0,457.01,0H55.355c-5.335,0-9.73,4.188-9.988,9.517l-5.806,120
			c-0.132,2.733,0.861,5.401,2.749,7.381c1.887,1.981,4.504,3.102,7.24,3.102h33.451c5.229,0,9.576-4.029,9.971-9.243
			c1.546-20.369,6.338-36.544,14.244-48.08c7.793-11.379,16.759-18.812,27.408-22.721c5.919-2.056,18.632-4.496,45.616-4.496h29.478
			V396c0,34.526-4.353,44.587-6.204,47.282c-6.782,9.797-18.572,14.56-36.043,14.56h-17.417c-5.523,0-10,4.477-10,10V502
			c0,5.523,4.477,10,10,10h208.628c5.523,0,10-4.477,10-10v-34.159c0-5.523-4.477-10-10-10h-17.053
			c-16.021,0-27.783-3.992-34.961-11.866c-1.777-2.099-7.287-11.728-7.287-49.975V143c0-5.523-4.477-10-10-10s-10,4.477-10,10v253
			c0,33.501,3.895,53.575,12.257,63.172c0.041,0.047,0.082,0.093,0.124,0.139c11.123,12.296,27.9,18.53,49.867,18.53h7.053V492
			H160.054v-14.159h7.417c24.183,0,41.842-7.797,52.507-23.204c6.645-9.671,9.74-28.303,9.74-58.637V45.46c0-5.523-4.477-10-10-10
			H180.24c-24.334,0-41.437,1.845-52.285,5.64c-0.044,0.015-0.087,0.031-0.131,0.047c-14.521,5.307-27.006,15.478-37.108,30.226
			c-8.61,12.564-14.229,28.89-16.751,48.626h-13.92l4.838-100h382.57l4.535,100h-14.324c-2.709-17.175-6.233-29.728-10.73-38.255
			c-8.415-15.736-19.867-27.554-34.044-35.129c-13.871-7.402-31.996-11.156-53.872-11.156h-49.637c-5.523,0-10,4.477-10,10
			s4.477,10,10,10h49.638c18.556,0,33.513,2.961,44.451,8.798c10.771,5.755,19.22,14.561,25.801,26.867
			c2.76,5.234,6.704,16.453,9.815,40.175c0.653,4.978,4.895,8.7,9.915,8.7h33.451c2.731,0,5.343-1.117,7.229-3.091
			s2.884-4.634,2.76-7.362L467,9.547z"/>
		<path d="M279.381,79v30c0,5.523,4.477,10,10,10s10-4.477,10-10V79c0-5.523-4.477-10-10-10S279.381,73.477,279.381,79z"/>
		<path d="M180.001,326c5.523,0,10-4.477,10-10v-23c0-5.523-4.477-10-10-10s-10,4.477-10,10v23
			C170.001,321.523,174.478,326,180.001,326z"/>
		<path d="M170.001,429c0,5.523,4.477,10,10,10s10-4.477,10-10v-75c0-5.523-4.477-10-10-10s-10,4.477-10,10V429z"/>
	</g>
</g>
<g>
</g>
<g>
</g>
<g>
</g>
<g>
</g>
<g>
</g>
<g>
</g>
<g>
</g>
<g>
</g>
<g>
</g>
<g>
</g>
<g>
</g>
<g>
</g>
<g>
</g>
<g>
</g>
<g>
</g>
</svg>
