<?xml version="1.0" standalone="no"?>
<!DOCTYPE svg PUBLIC "-//W3C//DTD SVG 20010904//EN"
 "http://www.w3.org/TR/2001/REC-SVG-20010904/DTD/svg10.dtd">
<svg version="1.0" xmlns="http://www.w3.org/2000/svg"
 width="905.000000pt" height="1280.000000pt" viewBox="0 0 905.000000 1280.000000"
 preserveAspectRatio="xMidYMid meet">
<metadata>
Created by potrace 1.15, written by Peter Selinger 2001-2017
</metadata>
<g transform="translate(0.000000,1280.000000) scale(0.100000,-0.100000)"
fill="#000000" stroke="none">
<path d="M5740 11853 c-19 -1 -134 -10 -255 -19 -120 -9 -228 -20 -240 -25
-14 -6 -3 -8 35 -4 30 2 172 12 315 20 143 9 301 20 350 24 l90 8 -130 0 c-71
0 -146 -2 -165 -4z"/>
<path d="M5120 11779 c-239 -15 -594 -55 -620 -70 -9 -5 23 -9 85 -10 91 -2
95 -3 45 -10 -72 -10 220 -2 410 11 80 6 249 17 375 25 355 22 649 46 655 52
3 3 -33 3 -80 -1 -47 -3 -233 -13 -415 -21 -181 -8 -400 -20 -485 -25 -166
-10 -266 -13 -259 -6 2 2 96 12 209 21 113 9 215 19 228 21 26 5 20 25 -6 23
-9 -1 -73 -5 -142 -10z m-307 -66 c-7 -2 -19 -2 -25 0 -7 3 -2 5 12 5 14 0 19
-2 13 -5z"/>
<path d="M6138 11763 c17 -2 47 -2 65 0 17 2 3 4 -33 4 -36 0 -50 -2 -32 -4z"/>
<path d="M6373 11763 c9 -2 23 -2 30 0 6 3 -1 5 -18 5 -16 0 -22 -2 -12 -5z"/>
<path d="M5270 11699 c-164 -9 -354 -28 -347 -36 3 -2 60 1 128 6 261 23 640
39 628 27 -2 -2 -73 -10 -156 -17 -84 -7 -151 -15 -148 -17 2 -3 103 0 222 7
120 6 286 14 368 18 l150 7 -90 7 c-122 9 -564 8 -755 -2z"/>
<path d="M4447 11673 c18 -2 50 -2 70 0 21 2 7 4 -32 4 -38 0 -55 -2 -38 -4z"/>
<path d="M5277 11654 c-2 -2 -123 -8 -268 -14 -256 -9 -634 -41 -694 -59 -19
-6 107 -10 340 -11 433 -3 410 -9 -145 -40 -212 -12 -387 -24 -390 -27 -5 -5
68 -3 420 13 74 4 133 4 130 1 -6 -6 -479 -41 -772 -57 -195 -10 -286 -27
-173 -31 52 -2 46 -3 -45 -12 -58 -5 -108 -15 -112 -21 -5 -7 -104 -17 -260
-27 -355 -24 -380 -45 -58 -50 114 -1 133 -3 90 -9 -30 -5 -79 -8 -108 -9 -35
-1 -51 -5 -46 -12 8 -13 196 -6 599 21 154 11 366 24 470 30 105 5 224 12 265
16 41 3 72 3 69 0 -4 -4 -112 -16 -240 -26 -129 -11 -315 -26 -414 -35 -99 -8
-324 -26 -500 -40 -176 -14 -327 -27 -335 -29 -35 -9 71 -5 270 9 117 9 214
14 217 11 2 -2 -31 -7 -74 -11 -115 -9 -126 -12 -48 -13 39 -1 115 3 170 8
178 16 296 21 250 10 -66 -17 -69 -18 -55 -35 9 -11 5 -15 -27 -20 -71 -12
-68 -14 12 -10 70 3 74 3 35 -6 -43 -9 -230 -19 -370 -21 l-65 0 55 -8 c30 -4
120 -8 199 -9 79 -1 142 -4 139 -7 -13 -12 -155 -23 -443 -34 -165 -6 -356
-17 -425 -25 l-125 -13 185 5 c102 3 183 3 179 0 -3 -4 -79 -16 -170 -27 -90
-11 -191 -25 -224 -30 -91 -14 -218 -29 -335 -39 l-105 -10 135 5 c74 3 189 9
255 14 66 5 158 12 205 14 47 3 135 8 197 12 122 7 163 2 163 -21 0 -8 7 -15
16 -15 8 0 12 -4 9 -10 -3 -5 -20 -10 -36 -10 -40 0 -234 -35 -390 -70 -69
-16 -165 -36 -214 -44 -101 -18 -127 -30 -39 -19 95 12 615 10 643 -3 20 -9 2
-12 -100 -17 -68 -4 -203 -11 -299 -16 -96 -5 -259 -13 -362 -16 -104 -4 -186
-11 -183 -16 3 -4 -16 -10 -42 -12 -27 -2 -16 -3 22 -1 174 9 470 16 465 11
-3 -3 -113 -10 -245 -16 -132 -6 -260 -15 -285 -18 -42 -7 -39 -8 40 -14 47
-4 135 -8 195 -8 126 -1 215 -10 215 -22 0 -4 -25 -11 -55 -14 -119 -15 -37
-15 181 -1 421 29 410 28 394 17 -11 -8 18 -10 105 -6 l120 4 -150 -14 c-82
-8 -195 -14 -250 -12 -58 1 -150 -6 -220 -16 -66 -10 -199 -27 -295 -37 -124
-14 -147 -18 -80 -15 221 11 475 17 470 12 -5 -5 -370 -34 -675 -53 -195 -12
-155 -21 91 -19 253 1 266 -1 89 -13 l-110 -7 133 -19 c108 -15 170 -18 320
-14 124 4 167 3 127 -3 -94 -14 -98 -19 -10 -13 44 3 103 12 130 21 90 27 467
30 451 4 -6 -9 -87 -31 -244 -66 -126 -28 -163 -42 -141 -56 9 -6 -3 -9 -36
-9 -27 -1 -68 -4 -90 -9 -39 -7 -39 -7 25 -14 36 -4 115 -13 175 -22 61 -8
173 -15 250 -16 l140 -2 -145 -13 c-80 -7 -192 -15 -250 -19 -58 -4 -145 -11
-195 -15 l-90 -7 105 -2 c240 -3 85 -37 -228 -49 -94 -4 -173 -4 -175 -1 -2 7
-296 -36 -304 -45 -4 -3 9 -6 28 -6 19 0 40 -4 47 -9 8 -4 -36 -11 -105 -14
-65 -4 -127 -9 -138 -11 -11 -2 -46 -7 -78 -10 -31 -4 -57 -12 -57 -18 0 -13
142 -6 360 16 172 18 210 19 210 6 0 -20 -84 -29 -355 -40 -154 -7 -354 -16
-445 -22 -91 -5 -274 -12 -408 -15 l-242 -5 0 -267 0 -267 -212 -22 c-117 -13
-229 -24 -248 -26 -19 -3 33 -3 116 0 202 5 344 -4 344 -23 0 -10 -6 -12 -21
-8 -12 4 -24 2 -29 -4 -4 -8 -75 -15 -196 -21 -295 -15 -296 -31 -1 -25 213 5
247 4 247 -9 0 -11 -15 -16 -52 -19 l-53 -3 53 -2 52 -2 0 -89 0 -88 -31 -7
c-17 -3 -46 -6 -63 -6 -17 0 -37 -4 -44 -9 -14 -8 52 -21 109 -21 l29 0 -1
-366 0 -366 -77 5 c-159 13 -288 17 -254 8 19 -5 101 -12 183 -16 113 -6 149
-10 149 -20 0 -8 -12 -16 -27 -18 l-28 -4 28 -2 27 -1 0 -444 0 -444 -132 -6
c-73 -3 -250 -10 -393 -14 l-260 -9 231 -1 c238 -2 307 -8 282 -23 -8 -6 -2
-7 17 -4 17 2 81 7 143 10 91 4 112 3 112 -8 0 -16 -60 -27 -140 -27 -69 0
-140 -11 -134 -21 3 -5 -50 -9 -118 -10 l-123 -1 115 -29 c73 -18 167 -33 257
-41 79 -6 143 -15 143 -20 0 -4 -15 -8 -34 -8 -50 0 -53 -17 -6 -31 l40 -12 0
-104 c0 -85 -3 -103 -15 -103 -8 0 -15 -4 -15 -10 0 -5 7 -10 15 -10 12 0 15
-14 15 -70 0 -60 -3 -70 -17 -70 -10 0 -72 -7 -138 -15 -66 -8 -162 -15 -213
-15 -70 0 -93 -3 -90 -12 9 -26 75 -38 401 -74 l58 -6 -3 -117 -3 -116 -60
-12 c-33 -6 -85 -16 -115 -21 l-55 -10 65 0 c165 1 170 0 170 -26 0 -23 -2
-23 -127 -31 -144 -8 -182 -17 -163 -40 10 -12 41 -15 151 -15 86 0 139 -4
139 -10 0 -6 -33 -11 -77 -11 l-78 -2 78 -10 77 -9 0 -48 0 -48 -80 -7 c-79
-7 -112 -25 -45 -25 26 0 33 -4 29 -14 -4 -10 7 -21 32 -34 l37 -19 -64 -12
c-121 -24 -162 -56 -101 -80 20 -8 -33 -10 -212 -7 -131 3 -237 3 -235 2 10
-9 122 -16 328 -21 125 -3 245 -8 269 -11 l42 -5 0 -91 0 -90 -27 5 c-26 5
-204 -26 -225 -39 -21 -13 19 -23 113 -29 155 -10 139 11 139 -178 l0 -163
-167 2 -168 2 165 -13 c91 -7 166 -13 168 -14 1 0 2 -23 2 -51 0 -36 -5 -52
-17 -59 -17 -9 -17 -10 0 -16 14 -6 17 -21 17 -100 l0 -94 -37 -4 -38 -4 38
-1 37 -2 0 -148 0 -148 -192 -48 c-262 -65 -269 -68 -138 -77 58 -4 156 -7
217 -8 l113 -1 2 -907 3 -908 1145 -5 c630 -3 1093 -7 1030 -9 -63 -2 -155 -6
-205 -10 -82 -7 -75 -8 80 -10 96 -1 205 -8 250 -16 44 -8 103 -15 130 -17 33
-1 17 -4 -45 -8 l-95 -6 114 -2 c63 -1 112 -4 110 -6 -2 -2 -122 -10 -266 -17
-145 -7 -263 -17 -263 -22 0 -9 109 -5 400 13 285 18 395 22 388 15 -3 -3 -86
-11 -185 -16 -191 -10 -223 -14 -223 -29 0 -11 50 -25 153 -41 146 -23 104
-44 -120 -60 -87 -6 -250 -11 -363 -11 -262 2 -534 -8 -523 -18 11 -11 167
-26 453 -45 368 -24 475 -38 466 -62 -5 -12 -1 -14 21 -9 41 9 410 28 468 24
30 -2 -65 -16 -244 -36 -162 -18 -299 -36 -305 -41 -6 -5 -114 -14 -241 -20
-126 -6 -242 -14 -257 -17 -27 -5 -36 -18 -20 -28 14 -9 204 -25 467 -41 142
-9 260 -17 262 -19 2 -1 -70 -6 -159 -10 -165 -6 -277 -24 -326 -50 -15 -7
-45 -24 -67 -36 l-40 -22 225 7 c124 3 250 8 280 12 30 3 53 3 50 0 -3 -3 -70
-13 -149 -22 -176 -20 -302 -42 -314 -54 -19 -19 -11 -20 447 -51 143 -9 166
-13 153 -26 -22 -22 -374 -65 -602 -73 l-190 -6 158 -19 c174 -21 246 -18 677
25 255 26 441 36 685 36 l190 0 -160 -8 c-225 -11 -570 -38 -770 -60 -158 -17
-162 -18 -65 -14 65 2 96 0 80 -5 -16 -6 2 -7 50 -4 310 19 619 34 690 33 l85
-2 -60 -8 c-33 -5 -114 -12 -180 -17 l-120 -9 215 -3 c149 -1 201 -5 170 -10
-63 -12 -418 -30 -607 -31 -87 -1 -169 -4 -183 -8 -14 -5 148 -7 360 -5 284 2
371 0 330 -7 -30 -6 -166 -10 -301 -9 -198 1 -295 -4 -500 -25 -140 -14 -276
-30 -304 -35 -27 -5 -126 -22 -219 -39 -92 -16 -171 -33 -175 -37 -3 -4 10 -4
29 -1 69 12 160 18 489 32 441 20 575 20 595 0 8 -8 26 -15 40 -15 14 0 26 -4
26 -8 0 -5 -71 -12 -157 -15 -87 -4 -223 -13 -303 -21 -80 -8 -215 -19 -300
-25 -138 -10 -581 -54 -669 -67 -23 -4 -30 -8 -22 -14 8 -5 -10 -10 -48 -15
-33 -4 -61 -12 -61 -17 0 -8 39 -9 122 -4 129 7 150 2 52 -14 -56 -9 -55 -9
21 -4 44 3 123 10 175 15 130 12 297 11 305 -1 3 -5 3 -10 0 -10 -13 0 -392
-72 -427 -81 -21 -5 -38 -14 -38 -19 0 -13 850 -13 1210 0 431 14 855 23 850
17 -9 -10 -391 -36 -617 -43 -126 -3 -257 -13 -333 -25 -132 -21 -178 -39 -98
-39 26 0 50 -4 53 -10 4 -6 -14 -10 -47 -10 -78 -1 -437 -36 -445 -44 -4 -4
18 -4 48 -2 104 10 510 28 515 23 8 -8 -89 -16 -456 -37 -190 -11 -370 -22
-400 -24 -30 -2 195 -2 500 0 508 3 577 5 819 29 146 14 272 30 280 35 10 6
-125 10 -354 11 -203 1 -354 4 -335 6 19 3 199 15 400 28 l365 24 -225 -4
c-124 -2 -218 -2 -210 0 19 5 541 42 778 55 101 5 191 15 200 20 13 8 -1 10
-53 6 -46 -4 -63 -3 -49 3 11 5 68 13 125 17 89 7 97 9 59 15 -25 3 -34 7 -20
8 14 1 150 10 302 20 152 11 284 23 293 29 24 13 -178 25 -285 16 -59 -5 -82
-3 -75 4 6 6 57 15 115 20 l105 9 -155 1 c-85 1 -276 -7 -425 -18 -369 -27
-826 -52 -861 -48 -16 2 297 31 696 65 635 55 723 65 405 48 -68 -3 -73 -3
-30 5 28 4 73 9 100 11 47 2 48 3 11 6 -21 3 -125 -3 -230 -11 -105 -9 -222
-18 -261 -21 l-70 -4 80 15 c43 8 81 17 84 19 2 3 -2 11 -8 19 -10 12 -8 15
11 19 13 2 -8 5 -47 7 -53 2 -21 7 132 20 111 10 208 20 215 23 7 3 -57 6
-142 7 -110 1 -146 4 -125 11 29 8 118 14 635 40 295 15 384 27 150 21 -102
-3 -183 -2 -180 1 3 3 82 15 175 26 94 12 212 29 264 37 51 9 132 20 180 24
72 7 64 8 -49 4 -74 -3 -169 -10 -210 -15 -41 -5 -161 -12 -266 -15 -189 -7
-192 -7 -203 14 -7 14 -21 22 -38 22 -50 0 -15 12 64 21 78 10 181 30 479 92
l161 33 -326 0 c-212 -1 -332 3 -344 10 -19 11 181 25 683 46 146 6 267 14
270 19 3 4 21 9 40 12 19 2 13 3 -15 1 -27 -2 -156 -6 -285 -8 l-235 -5 297
18 c164 9 300 20 303 23 3 3 -81 9 -187 12 -216 7 -290 14 -283 26 2 4 23 10
46 14 99 16 12 13 -301 -10 -1058 -76 -1776 -117 -1759 -100 2 3 178 14 389
26 212 11 405 25 429 31 25 5 178 14 340 20 163 5 303 12 311 14 8 2 -61 3
-155 1 l-170 -4 205 17 c295 26 378 31 355 21 -34 -15 24 -12 124 5 50 9 166
24 258 35 l168 18 -215 -5 c-118 -2 -221 -6 -227 -9 -7 -2 -13 0 -13 5 0 5 30
11 68 15 59 6 598 43 677 47 93 5 -156 17 -290 14 l-160 -3 150 11 150 12 -95
13 c-169 23 -250 24 -520 7 -275 -18 -485 -20 -522 -6 -22 8 -22 8 -3 18 11 6
97 28 190 48 184 40 217 51 194 66 -9 6 5 9 41 10 30 1 69 5 85 9 29 7 29 8
-10 9 -22 1 -80 8 -130 16 -49 8 -171 18 -270 22 -207 9 -204 9 220 38 132 9
245 18 250 20 6 2 -38 4 -97 4 -60 1 -108 5 -108 10 0 17 151 33 400 41 232 8
409 26 427 43 3 4 -31 7 -77 7 -46 0 -81 2 -78 5 3 3 70 10 149 15 178 13 301
28 314 41 14 14 -80 11 -295 -11 -216 -22 -280 -24 -280 -11 0 30 342 50 1020
60 l435 6 3 277 c2 236 5 278 17 278 8 0 95 9 192 20 98 11 198 21 223 24 47
4 -152 -1 -330 -8 -69 -3 -90 -2 -60 3 l45 8 -42 1 c-30 2 -43 6 -43 16 0 19
98 33 280 40 80 3 161 10 180 16 24 6 -43 8 -212 4 -216 -5 -248 -3 -248 10 0
9 12 16 33 19 l32 4 -32 1 -33 2 0 89 0 90 48 6 c26 3 61 10 77 14 l30 9 -31
1 c-17 1 -52 4 -78 7 l-46 7 0 364 0 365 28 -6 c15 -2 88 -8 162 -11 74 -3
144 -8 155 -11 16 -4 17 -3 4 5 -8 5 -62 12 -120 16 -171 10 -229 16 -229 26
0 5 12 9 28 10 l27 1 -27 10 -28 10 0 443 0 443 123 6 c67 3 239 10 382 14
l260 9 -226 1 c-233 2 -302 8 -277 23 8 6 2 7 -17 4 -16 -2 -78 -6 -137 -9
-87 -5 -108 -3 -108 8 0 15 50 26 125 26 81 0 158 12 143 21 -7 5 43 9 117 10
95 1 119 3 90 9 -22 5 -53 13 -69 19 -39 16 -193 39 -308 47 -54 4 -98 11 -98
15 0 5 16 9 36 9 44 0 42 20 -4 32 l-32 9 0 103 c0 74 4 106 13 110 10 5 10 7
0 12 -9 4 -13 29 -13 73 l0 67 143 17 c78 9 179 17 224 17 45 0 85 5 88 10 11
18 -44 30 -219 51 -94 11 -186 22 -203 25 l-33 5 0 119 0 118 73 12 c128 20
140 29 30 24 l-103 -6 0 29 0 29 140 11 c77 5 143 12 145 15 3 3 3 13 -1 22
-5 14 -25 16 -145 16 -86 0 -139 4 -139 10 0 6 32 11 73 11 78 1 75 4 -15 14
l-58 6 0 50 0 49 43 1 c47 0 134 16 100 18 -32 2 -53 12 -53 26 0 6 -19 20
-42 31 l-41 18 64 13 c78 16 149 41 149 54 0 6 -16 17 -35 25 -19 8 -35 16
-35 18 0 2 30 2 68 0 148 -8 414 -10 372 -3 -25 4 -168 10 -317 14 l-273 8 0
94 0 93 38 -1 c38 -2 184 25 204 37 22 14 -23 25 -131 31 l-111 6 0 167 0 166
153 -2 c132 -2 141 -1 67 6 -47 4 -115 8 -152 9 l-68 1 0 60 c0 50 3 60 18 60
16 1 16 1 0 14 -15 11 -18 29 -18 104 l0 91 33 4 32 4 -32 1 -33 2 0 148 0
147 142 34 c199 47 282 73 266 83 -7 4 -102 8 -210 8 l-198 0 0 905 0 905
-1312 1 c-722 0 -1308 2 -1303 4 6 2 125 9 265 15 326 13 474 22 479 26 2 2
-74 4 -171 4 -104 0 -215 6 -274 15 -54 8 -106 16 -114 17 -8 1 37 5 100 8
l115 6 -140 3 -140 4 130 8 c72 4 185 11 253 15 68 3 121 9 118 12 -7 6 -189
4 -331 -3 -90 -5 -97 -4 -70 8 28 13 29 14 10 24 -11 6 -63 18 -115 27 -92 16
-122 28 -103 39 29 18 219 30 523 32 374 3 598 13 564 25 -24 9 -311 35 -559
50 -169 11 -363 34 -374 46 -3 3 1 10 9 15 11 8 7 9 -15 4 -43 -8 -326 -24
-420 -23 l-80 1 65 8 c36 5 133 16 215 24 200 21 305 37 305 47 0 4 35 8 78 8
96 0 401 19 425 26 22 7 22 20 0 28 -22 9 -318 33 -512 42 -84 4 -154 10 -156
14 -2 4 62 10 143 13 159 7 256 25 311 60 19 12 49 27 66 33 23 9 -23 11 -210
9 -132 -2 -226 -2 -210 1 17 2 82 11 145 20 145 20 210 33 210 44 0 17 14 16
-474 50 -173 12 -182 21 -45 45 139 24 347 45 469 46 118 1 277 15 208 17 -20
1 -92 9 -160 18 -141 19 -255 13 -843 -46 -49 -5 -214 -11 -365 -14 -243 -4
-255 -4 -105 4 200 10 776 58 855 70 46 8 40 9 -40 5 -61 -3 -89 -1 -80 5 12
8 10 10 -8 10 -13 0 -21 -3 -19 -7 3 -5 -52 -8 -122 -8 -107 0 -365 -12 -656
-30 -46 -3 -64 -1 -54 5 9 6 95 14 190 20 96 6 181 12 189 14 8 2 -88 5 -215
6 -172 2 -215 5 -170 11 47 6 459 22 780 29 32 1 36 3 20 10 -11 5 -76 7 -145
5 -424 -15 -625 -16 -612 -3 10 10 82 13 315 15 247 1 348 6 555 27 138 15
273 31 300 36 44 9 78 16 305 57 48 8 86 18 83 20 -2 2 -41 -1 -87 -6 -103
-13 -426 -29 -776 -38 -239 -6 -263 -5 -269 10 -5 13 -19 17 -57 17 -110 0
-31 10 154 20 107 6 259 17 339 25 80 8 243 21 362 30 119 8 239 19 265 24 26
5 113 15 192 22 80 7 136 16 125 20 -15 5 -10 8 21 14 103 18 98 23 -25 25
-151 3 -118 12 105 30 83 7 179 16 215 21 107 13 -121 0 -300 -17 -307 -30
-347 -33 -464 -34 -77 0 -117 3 -110 10 5 5 97 25 204 45 213 39 263 52 255
66 -9 14 -784 10 -1345 -6 -528 -16 -696 -18 -688 -10 6 6 391 31 683 45 212
10 358 29 379 50 7 7 -11 10 -54 10 -112 0 -58 10 136 26 104 8 218 19 254 24
66 9 -40 8 -375 -4 -100 -4 -116 -3 -70 4 33 5 236 18 450 30 215 11 413 22
440 23 28 2 -107 4 -300 6 -192 1 -364 4 -382 5 -18 2 -34 2 -36 0z m-1350
-480 c-3 -3 -12 -4 -19 -1 -8 3 -5 6 6 6 11 1 17 -2 13 -5z m776 -421 c-7 -2
-19 -2 -25 0 -7 3 -2 5 12 5 14 0 19 -2 13 -5z m-113 -10 c-14 -2 -178 -12
-365 -23 -187 -11 -374 -24 -415 -29 -41 -5 -181 -11 -310 -14 l-235 -5 185
14 c405 32 912 62 1035 61 72 0 119 -2 105 -4z m877 -69 c-3 -3 -12 -4 -19 -1
-8 3 -5 6 6 6 11 1 17 -2 13 -5z m52 -558 c-2 -2 -78 -6 -169 -9 -91 -3 -147
-2 -125 3 40 7 302 13 294 6z m-96 -33 c-7 -2 -19 -2 -25 0 -7 3 -2 5 12 5 14
0 19 -2 13 -5z m-3548 -343 c-3 -5 -2 -10 4 -10 5 0 11 4 13 9 2 5 29 6 63 2
l60 -7 -110 -17 c-101 -15 -256 -31 -410 -41 -33 -2 31 -2 142 -1 172 3 201 2
196 -11 -3 -8 1 -14 8 -14 23 0 -6 -21 -43 -31 -22 -6 3 -7 72 -3 58 2 155 7
215 10 72 4 105 2 96 -4 -28 -20 29 -22 364 -13 187 6 341 8 343 6 11 -11 -78
-17 -618 -42 -122 -6 -132 -8 -105 -19 l30 -13 -31 -1 c-18 0 -110 -4 -205 -9
-96 -6 -274 -13 -396 -16 l-223 -7 0 121 0 121 271 0 c177 0 268 -3 264 -10z
m568 3 c-23 -2 -64 -2 -90 0 -26 2 -7 3 42 3 50 0 71 -1 48 -3z m5267 -395 l0
-403 -235 -1 c-130 -1 -234 0 -233 1 2 2 50 8 107 14 100 11 120 15 110 26 -3
2 -77 9 -164 15 -88 6 -185 13 -215 17 l-55 7 45 7 c25 4 135 12 245 19 378
22 380 23 145 43 -374 33 -795 84 -985 120 l-70 13 138 8 c190 11 420 2 476
-19 37 -13 86 -16 325 -14 155 1 290 5 301 9 21 7 -62 13 -540 35 -483 22
-617 34 -639 55 -23 23 88 33 380 34 166 0 300 4 298 7 -2 4 -28 10 -58 13
-66 9 -91 26 -91 63 0 36 -27 49 -125 61 l-75 9 97 2 c53 0 100 6 103 11 8 13
-258 13 -304 0 -18 -5 -169 -14 -335 -19 -325 -11 -1150 -22 -1143 -15 2 2 87
9 188 14 101 6 256 19 344 30 236 28 704 54 1135 62 100 2 92 3 -65 8 l-180 6
190 3 c318 5 168 19 -219 20 -198 1 -357 3 -354 7 3 3 122 9 264 13 l259 8
-325 3 c-179 1 -338 5 -355 9 l-30 7 30 7 c17 3 102 9 190 13 228 10 160 20
-280 39 -203 9 -392 20 -420 24 -28 5 432 9 1038 10 l1087 1 0 -402z m-6330
148 c0 -2 -9 -6 -20 -9 -11 -3 -20 -1 -20 4 0 5 9 9 20 9 11 0 20 -2 20 -4z
m935 -56 c-3 -5 2 -10 12 -10 15 -1 16 -2 3 -9 -22 -13 -354 -30 -361 -18 -6
8 -404 -5 -566 -18 -51 -5 -63 -3 -63 9 0 21 26 24 340 36 151 6 300 12 330
14 155 7 311 5 305 -4z m-1262 -27 c-13 -2 -35 -2 -50 0 -16 2 -5 4 22 4 28 0
40 -2 28 -4z m507 -83 c-100 -12 -220 -11 -220 0 0 6 53 9 143 8 118 -1 131
-2 77 -8z m363 -17 c-13 -2 -23 -9 -23 -14 0 -5 63 -10 145 -10 80 -1 151 -2
158 -3 6 -1 53 4 102 11 99 13 472 17 526 6 30 -7 26 -9 -36 -15 -447 -43
-664 -69 -662 -81 3 -13 -7 -14 -323 -26 -157 -6 -327 -14 -377 -17 l-93 -6 0
71 c0 39 1 72 3 72 1 1 76 5 167 9 188 7 446 9 413 3z m1067 -151 c85 -6 164
-11 174 -11 11 -1 17 -3 15 -6 -9 -9 -324 -24 -894 -45 -773 -28 -968 -42
-912 -65 9 -4 129 -13 265 -20 136 -7 236 -13 222 -14 -24 -2 -24 -3 -3 -11
19 -8 280 -30 351 -30 19 0 23 -3 15 -11 -8 -8 -111 -11 -338 -11 -179 0 -325
-2 -323 -3 2 -2 32 -6 67 -9 35 -3 66 -7 68 -9 2 -3 -43 -8 -99 -13 l-103 -8
75 -7 c41 -4 161 -11 265 -15 105 -5 172 -10 150 -11 -132 -9 -184 -16 -179
-24 3 -5 30 -9 61 -9 30 0 94 -7 142 -15 47 -8 113 -18 146 -24 48 -7 21 -9
-140 -10 -110 0 -206 0 -212 -1 -7 0 -13 -4 -13 -10 0 -6 40 -10 98 -11 53 -1
142 -5 197 -9 74 -6 33 -8 -155 -6 -286 2 -261 -5 106 -29 138 -9 275 -21 305
-25 46 -8 42 -9 -31 -5 -47 3 -175 8 -285 11 -175 6 -206 4 -245 -11 -35 -13
-89 -18 -242 -22 l-198 -5 0 214 0 215 77 7 c42 3 205 7 362 7 290 1 319 9
101 27 -84 7 -26 10 285 12 215 1 377 6 360 10 -16 4 -70 9 -120 11 l-90 3 80
6 c101 9 393 4 595 -8z m4718 -319 l-3 -68 -135 -12 -135 -12 138 4 137 4 0
-49 0 -50 -174 0 c-96 0 -183 -3 -193 -6 -17 -5 -17 -5 0 9 17 14 16 16 -15
26 -18 5 -50 13 -70 17 -53 9 -47 20 15 30 52 8 51 9 -43 14 l-95 6 78 2 c42
1 77 6 77 11 0 5 -45 13 -100 17 -114 8 -145 24 -47 24 70 0 261 17 291 26 40
13 -6 25 -120 34 -65 5 -121 10 -124 11 -10 4 330 26 423 27 l98 2 -3 -67z
m-5475 40 c-7 -2 -19 -2 -25 0 -7 3 -2 5 12 5 14 0 19 -2 13 -5z m-633 -259
c205 -25 261 -53 108 -55 -51 -1 -104 -4 -118 -8 -14 -4 56 -7 155 -7 116 0
189 -3 205 -11 l25 -12 -30 1 c-16 1 -159 -2 -317 -7 l-288 -8 0 66 0 66 73
-5 c39 -3 124 -12 187 -20z m6110 -14 c0 -6 -41 -10 -104 -10 -59 0 -108 4
-111 10 -4 6 33 10 104 10 67 0 111 -4 111 -10z m0 -62 c0 -10 -55 -12 -252
-8 -213 4 -235 5 -138 10 232 12 390 11 390 -2z m-5844 -58 c208 -11 429 -24
489 -30 61 -5 182 -15 270 -21 88 -6 162 -13 164 -15 11 -10 -385 -2 -754 16
-225 11 -474 23 -552 27 -130 6 -143 8 -143 25 0 24 39 24 526 -2z m5844 -121
l0 -122 -42 6 c-86 12 -148 29 -170 47 -22 18 -22 19 -5 54 9 20 17 41 17 47
0 19 -87 48 -181 61 l-94 13 225 5 c124 3 231 7 238 8 9 1 12 -28 12 -119z
m-5935 65 c105 -9 246 -19 315 -23 108 -7 85 -8 -175 -11 l-300 -3 190 -9
c105 -4 199 -13 210 -18 11 -6 63 -14 115 -19 70 -7 -12 -9 -310 -7 -223 2
-396 0 -385 -4 14 -6 3 -9 -37 -9 l-58 -1 0 66 0 67 123 -7 c67 -4 208 -14
312 -22z m-10 -133 c31 -7 8 -9 -101 -10 -174 -1 -324 9 -324 22 0 12 365 2
425 -12z m162 -17 c-3 -3 -12 -4 -19 -1 -8 3 -5 6 6 6 11 1 17 -2 13 -5z
m-207 -40 c140 -8 260 -17 265 -19 6 -2 -44 -5 -110 -6 -66 -1 -102 -4 -80 -6
146 -12 234 -26 274 -45 25 -11 69 -26 96 -33 l50 -12 -88 -6 c-49 -4 -151 -4
-228 -1 -92 5 -139 4 -139 -3 0 -6 67 -13 173 -18 286 -12 284 -24 -3 -19
-146 2 -338 7 -427 10 l-163 6 0 90 0 90 63 -6 c34 -3 177 -13 317 -22z m323
-31 c-7 -2 -21 -2 -30 0 -10 3 -4 5 12 5 17 0 24 -2 18 -5z m5667 -13 c0 -20
-7 -20 -427 -20 -234 0 -423 3 -419 8 16 16 247 29 539 31 301 1 307 1 307
-19z m-5292 -97 c-10 -2 -26 -2 -35 0 -10 3 -2 5 17 5 19 0 27 -2 18 -5z
m-960 -90 c12 -3 22 -9 22 -13 0 -5 -10 -11 -22 -13 -13 -2 0 -5 27 -6 28 -1
160 -7 295 -13 135 -6 338 -10 451 -8 113 1 230 -2 260 -6 l54 -9 -80 -6 c-77
-5 -76 -5 40 -8 66 -1 138 -6 160 -10 23 -5 -251 -9 -633 -10 -371 0 -678 -3
-683 -6 -5 -4 -9 22 -9 61 l0 66 48 -7 c26 -3 57 -9 70 -12z m1397 -3 l20 -9
-20 1 c-11 0 -33 4 -50 8 l-30 8 30 0 c17 0 39 -3 50 -8z m485 -10 c14 -5 -67
-8 -185 -7 -123 0 -187 3 -155 7 78 10 310 10 340 0z m4370 -115 l0 -115 -92
-2 -93 -2 90 -6 c50 -4 2 -5 -105 -3 -194 4 -273 16 -314 46 -53 39 33 81 298
148 105 26 197 48 204 48 9 1 12 -28 12 -114z m-6040 -15 c124 -5 410 -17 635
-26 226 -9 437 -19 470 -23 l60 -7 -58 -8 c-32 -5 -180 -3 -330 3 -421 17
-748 22 -707 11 32 -8 166 -18 515 -36 116 -6 126 -8 95 -18 -23 -7 -59 -8
-105 -3 -108 12 -473 18 -449 8 11 -5 125 -12 253 -16 127 -4 229 -10 225 -14
-3 -3 -130 -5 -282 -4 -278 3 -297 -1 -167 -29 l60 -12 -90 -7 c-49 -4 -133
-8 -185 -9 l-95 -3 97 -12 c105 -13 128 -19 128 -33 0 -12 -49 -25 -242 -66
l-158 -32 0 179 0 180 53 -6 c28 -4 153 -11 277 -17z m6040 -176 c0 -24 -3
-25 -27 -19 -42 10 -50 23 -22 34 39 16 49 13 49 -15z m-22 -151 c-15 -2 -42
-2 -60 0 -18 2 -6 4 27 4 33 0 48 -2 33 -4z m22 -58 l0 -46 -92 6 c-51 4 -160
13 -243 21 -82 8 -156 14 -163 14 -7 0 -10 5 -6 11 5 8 57 10 180 7 96 -3 174
-1 174 4 0 4 -17 9 -37 10 -38 2 61 13 145 16 l42 2 0 -45z m-5784 13 c-11 -6
-51 -13 -90 -15 -39 -3 -84 -11 -101 -19 -32 -15 -258 -44 -343 -44 l-52 0 0
35 0 35 58 1 c31 1 140 5 242 8 305 12 308 12 286 -1z m5784 -244 l0 -156 -22
5 c-22 6 -250 27 -478 46 l-105 8 150 3 150 4 -155 6 c-85 4 -195 8 -244 9
-49 0 -87 3 -85 5 2 2 56 9 119 16 236 23 546 61 584 71 65 17 28 31 -111 41
-682 48 -827 59 -831 63 -3 3 183 6 414 6 230 1 408 4 394 6 -14 2 -72 7 -130
12 -95 7 -83 8 123 10 l227 1 0 -156z m-6115 116 c64 -6 60 -7 -52 -8 -74 -1
-123 -6 -123 -12 0 -5 -18 -10 -40 -10 -28 0 -40 4 -40 14 0 23 119 30 255 16z
m-102 -177 c-29 -2 -77 -2 -105 0 -29 2 -6 3 52 3 58 0 81 -1 53 -3z m244
-123 c35 -7 63 -16 63 -20 0 -16 -52 -22 -252 -27 l-208 -5 0 49 0 49 167 -17
c92 -10 195 -23 230 -29z m5970 14 c-3 -3 -12 -4 -19 -1 -8 3 -5 6 6 6 11 1
17 -2 13 -5z m-6068 -90 c2 -2 -64 -4 -147 -4 -98 0 -152 4 -152 10 0 10 288
3 299 -6z m6064 9 c-7 -2 -21 -2 -30 0 -10 3 -4 5 12 5 17 0 24 -2 18 -5z
m-6159 -40 c43 -3 72 -9 64 -13 -18 -10 -268 1 -268 11 0 11 96 12 204 2z
m6166 -103 l0 -40 -267 5 c-278 6 -379 12 -368 23 3 3 115 9 248 13 162 5 262
12 302 22 86 22 85 22 85 -23z m-5960 10 c206 -11 397 -20 425 -20 39 0 47 -3
37 -12 -9 -10 -86 -15 -275 -19 -144 -4 -337 -10 -429 -14 l-168 -7 0 46 c0
37 3 46 18 46 9 0 186 -9 392 -20z m-150 -257 c74 -8 181 -18 237 -22 56 -3
104 -9 107 -12 4 -3 -72 -9 -167 -12 -166 -7 -368 -22 -414 -32 -22 -5 -23 -2
-23 50 l0 55 63 -6 c34 -3 123 -12 197 -21z m6110 -93 c0 -47 -8 -49 -48 -15
-18 15 -56 31 -94 39 l-63 14 103 1 102 1 0 -40z m-6090 -150 c10 -7 -29 -10
-120 -10 -74 0 -142 5 -150 10 -10 7 29 10 120 10 74 0 142 -5 150 -10z m6085
-25 c6 -2 -55 -4 -135 -4 -80 0 -151 3 -157 7 -12 8 271 5 292 -3z m-6319
-137 c12 -10 50 -25 85 -33 l64 -13 -97 -1 -98 -1 0 41 c0 43 5 44 46 7z
m6324 -73 c0 -30 -2 -55 -4 -55 -30 0 -376 33 -421 40 -33 6 -85 10 -115 10
-30 0 -62 5 -70 10 -10 7 15 10 80 10 117 1 479 26 487 34 4 3 15 6 25 6 15 0
18 -8 18 -55z m0 -260 c0 -42 -2 -45 -27 -45 -16 0 -194 9 -398 20 -203 11
-390 20 -415 20 -42 1 -44 2 -26 15 16 12 59 15 200 16 100 1 264 5 366 8 102
4 211 8 243 9 l57 2 0 -45z m-5800 8 c94 -7 94 -7 40 -14 -30 -4 -145 -8 -255
-8 -140 -1 -212 -5 -240 -15 -22 -7 -57 -17 -77 -20 l-38 -7 0 40 0 40 238 -5
c130 -2 280 -8 332 -11z m5708 -113 c54 0 92 -4 92 -10 0 -12 -87 -13 -210 -3
-57 4 -78 9 -65 14 11 5 36 6 55 4 19 -3 77 -5 128 -5z m92 -51 c0 -8 -44 -9
-147 -4 -82 4 -150 9 -152 11 -2 2 64 4 147 4 103 0 152 -4 152 -11z m0 -68
l0 -50 -32 5 c-18 2 -98 11 -178 19 -165 17 -260 34 -260 46 0 4 21 11 48 14
26 3 54 8 62 9 8 2 93 4 188 5 l172 1 0 -49z m-6159 -56 c101 -9 229 -20 284
-24 l100 -8 -150 -3 -150 -4 155 -6 c85 -4 197 -8 249 -9 52 0 92 -3 90 -6 -3
-2 -146 -20 -319 -39 -320 -36 -420 -51 -420 -66 0 -15 32 -20 211 -30 99 -6
298 -19 442 -30 144 -11 275 -20 291 -20 16 0 27 -3 23 -6 -3 -3 -187 -5 -408
-5 -380 2 -502 -7 -296 -20 68 -4 39 -6 -110 -7 l-203 -2 0 156 c0 129 2 155
14 151 7 -3 96 -13 197 -22z m6112 -72 c-29 -2 -77 -2 -105 0 -29 2 -6 3 52 3
58 0 81 -1 53 -3z m47 -157 c0 -21 -127 -30 -242 -19 l-93 10 125 2 c85 1 120
4 110 11 -11 7 2 10 43 10 42 0 57 -4 57 -14z m0 -100 l0 -34 -157 -6 c-398
-15 -448 -16 -433 -7 27 17 435 78 533 80 l57 1 0 -34z m-6045 -12 c83 -8 156
-14 163 -14 6 0 12 -5 12 -11 0 -9 -50 -10 -180 -7 -98 3 -177 1 -174 -4 3 -4
19 -8 36 -8 63 0 21 -8 -79 -15 l-103 -7 0 47 0 46 88 -6 c48 -4 155 -13 237
-21z m6045 -318 l0 -253 -52 8 c-29 5 -64 11 -78 14 l-25 7 25 13 c22 13 11
14 -105 15 -71 1 -139 3 -150 5 -57 9 -388 17 -597 15 -163 -1 -238 1 -238 9
0 6 32 12 78 14 54 2 38 4 -53 5 -90 2 -125 5 -115 12 9 6 147 10 355 10 769
-1 945 0 945 9 0 12 -87 17 -685 41 -541 21 -804 35 -813 45 -5 5 83 9 168 9
110 0 891 -25 923 -29 20 -3 37 -1 37 3 0 13 -68 19 -332 32 -285 13 -353 20
-318 31 41 12 105 10 218 -6 83 -12 137 -14 237 -7 l130 8 -130 8 c-398 23
-399 23 -95 25 275 3 283 3 220 17 -118 27 -119 28 -15 35 55 4 143 8 195 9
l95 2 -109 14 c-183 22 -170 36 84 89 96 20 177 39 179 41 17 17 21 -26 21
-250z m-6292 237 c-16 -2 -40 -2 -55 0 -16 2 -3 4 27 4 30 0 43 -2 28 -4z
m-43 -135 c31 -14 32 -24 3 -32 -35 -9 -38 -8 -38 19 0 29 0 29 35 13z m140
-74 c-70 -8 -175 -8 -175 -1 0 4 46 6 103 5 56 0 89 -3 72 -4z m287 -29 c131
-46 64 -90 -262 -171 -96 -24 -180 -44 -187 -44 -10 0 -13 28 -13 110 0 61 1
111 3 111 1 1 61 5 132 9 168 10 268 5 327 -15z m4238 -215 c-34 -11 -320 -11
-345 0 -12 5 58 8 175 8 112 0 184 -3 170 -8z m198 -17 c-10 -2 -26 -2 -35 0
-10 3 -2 5 17 5 19 0 27 -2 18 -5z m1220 -70 l252 -6 0 -89 0 -88 -34 0 c-44
0 -625 39 -651 44 -11 2 32 5 95 6 63 2 99 5 80 7 -127 12 -195 25 -230 43
-22 11 -69 27 -103 34 l-62 14 85 3 c47 1 157 1 244 -1 219 -4 198 15 -27 24
-95 4 -197 12 -227 16 -55 9 -33 9 578 -7z m-784 -21 c2 -4 -12 -6 -32 -4 -56
5 -62 10 -15 11 23 1 44 -3 47 -7z m-4513 -79 l34 -7 -50 -9 c-27 -4 -220 -10
-427 -13 -339 -6 -378 -5 -378 9 0 13 14 17 68 20 136 7 721 7 753 0z m-686
-89 c79 -19 93 -33 77 -77 -7 -18 -12 -40 -12 -49 0 -20 60 -44 147 -59 148
-24 135 -27 -104 -26 l-243 1 0 118 0 119 38 -6 c20 -4 64 -13 97 -21z m6173
-24 l62 0 -1 -107 -1 -108 -211 7 c-378 13 -1234 71 -1246 84 -8 9 482 -3 814
-21 255 -14 680 -28 560 -19 -27 2 -174 13 -325 24 -530 40 -515 37 -225 40
250 3 254 3 112 10 -91 4 -152 11 -159 18 -7 7 -39 13 -72 13 -34 1 -74 5 -91
9 -16 4 148 6 365 5 217 -2 382 -1 365 3 -25 5 -20 7 30 12 37 4 -10 7 -125 8
-103 1 -190 6 -195 11 -6 5 -23 12 -40 15 -16 2 49 3 145 0 96 -2 203 -4 238
-4z m62 -291 l0 -62 -92 7 c-207 15 -369 44 -384 67 -3 5 41 9 98 10 57 0 112
4 123 9 11 5 -35 6 -110 3 -72 -3 -162 -2 -200 3 l-70 8 45 7 c25 3 168 7 318
7 l272 2 0 -61z m-6100 41 l115 -7 -177 -1 c-97 -1 -183 -5 -192 -8 -11 -4
-16 -1 -16 10 0 18 56 19 270 6z m-100 -60 c44 -6 48 -7 19 -9 -20 0 -70 -4
-112 -7 -67 -6 -77 -5 -77 10 0 13 10 16 58 15 31 -1 82 -4 112 -9z m198 -57
c-34 -9 -18 -22 40 -33 82 -16 92 -21 62 -30 -14 -5 -41 -9 -60 -11 -19 -1 3
-6 50 -9 81 -6 82 -6 23 -8 -95 -3 -84 -19 18 -27 151 -12 156 -21 16 -29
-295 -17 -342 -41 -119 -61 l127 -11 -205 -12 c-113 -7 -231 -15 -262 -17
l-58 -5 0 69 0 70 53 5 c28 3 97 10 152 14 l100 9 -85 1 c-47 1 -115 -2 -152
-7 l-68 -7 0 50 0 51 193 1 c105 1 184 0 175 -3z m5960 -1 l42 -4 0 -208 0
-207 -77 -7 c-42 -3 -205 -7 -362 -7 -291 -1 -320 -9 -96 -27 89 -7 34 -9
-285 -12 -217 -1 -381 -6 -365 -10 17 -4 71 -8 120 -10 50 -1 99 -5 110 -10
12 -5 -84 -9 -236 -9 -141 -1 -272 -3 -290 -6 -24 -4 -28 -3 -14 3 26 12 -74
22 -219 22 -61 0 -118 5 -126 10 -13 9 -13 10 0 10 8 0 87 4 175 10 88 5 410
19 715 30 572 21 858 36 898 46 69 19 -7 29 -318 41 -109 4 -171 10 -150 14
l35 6 -34 2 c-19 0 -62 5 -95 11 -34 5 -124 12 -201 16 -118 6 -133 9 -95 16
25 4 97 7 160 6 167 -2 528 5 442 9 -91 5 -86 23 6 24 37 1 78 4 92 8 21 6
-167 17 -407 23 -91 2 -102 18 -13 19 88 1 172 13 150 22 -8 3 -51 8 -95 10
-82 5 -220 22 -290 37 -25 5 41 8 183 9 140 1 222 5 222 11 0 6 -47 10 -117
11 -65 1 -149 5 -188 9 -45 6 16 7 175 5 268 -3 279 -5 -229 35 -140 11 -257
23 -260 27 -3 3 23 3 59 -1 36 -3 171 -9 301 -13 179 -5 244 -3 270 7 67 25
275 36 407 22z m-825 -219 c-13 -2 -35 -2 -50 0 -16 2 -5 4 22 4 28 0 40 -2
28 -4z m-5153 -75 c-171 -19 -136 -31 144 -48 93 -6 171 -12 174 -14 2 -2 -9
-7 -25 -10 -34 -7 -466 -36 -542 -36 -102 0 -46 -9 180 -30 299 -27 546 -55
759 -86 96 -14 193 -28 215 -31 88 -13 -7 -22 -245 -22 -213 0 -255 2 -319 19
-62 17 -104 20 -255 19 -100 -1 -230 -4 -291 -8 l-110 -6 80 -7 c44 -4 178
-12 298 -18 553 -26 656 -32 731 -41 45 -6 85 -14 90 -19 25 -25 -58 -33 -369
-38 -299 -5 -315 -6 -252 -18 81 -15 97 -26 97 -65 0 -37 16 -44 147 -62 l98
-14 -125 -2 c-71 -2 -116 -6 -105 -10 25 -10 264 -2 290 9 32 14 617 30 1060
29 346 -2 386 -3 255 -10 -85 -5 -216 -15 -290 -24 -318 -37 -504 -49 -950
-62 l-255 -8 150 -5 150 -6 -125 -3 c-334 -9 -306 -18 59 -19 211 -1 381 -5
377 -9 -4 -5 -96 -10 -204 -13 l-197 -6 230 -2 c259 -2 376 -10 351 -24 -8 -5
-95 -11 -192 -15 -104 -4 -169 -10 -156 -14 11 -4 135 -13 274 -19 408 -17
610 -30 627 -40 10 -6 -399 -10 -1081 -10 l-1098 0 0 405 0 405 218 -1 c193
-2 208 -3 132 -11z m6020 -267 c0 -58 -3 -71 -17 -75 -10 -2 -148 -7 -308 -10
-159 -3 -276 -1 -260 3 l30 8 -36 7 c-20 4 -117 5 -215 2 -416 -14 -651 -17
-694 -10 l-45 8 75 7 c41 3 206 20 365 38 160 17 295 31 300 31 6 0 4 4 -4 9
-10 7 -2 11 30 15 41 6 576 32 717 35 l62 1 0 -69z m0 -101 c0 -6 -58 -9 -157
-8 -118 1 -141 3 -93 8 108 11 250 11 250 0z m0 -65 c0 -20 -15 -22 -275 -34
-429 -21 -705 -25 -705 -13 0 7 -8 12 -17 13 -12 0 -10 3 7 9 39 14 353 31
360 20 4 -7 103 -5 271 4 368 19 359 19 359 1z m0 -95 c0 -5 -12 -10 -27 -9
l-28 1 25 8 c14 4 26 8 28 9 1 1 2 -3 2 -9z m0 -145 l0 -125 -377 2 c-208 1
-344 4 -303 8 60 5 66 7 30 9 -93 6 161 41 475 65 28 2 -34 2 -136 0 -103 -2
-195 -6 -205 -10 -18 -5 -18 -5 -1 6 11 7 16 18 12 30 -5 15 1 20 30 26 20 3
34 8 31 11 -3 4 -209 -8 -391 -22 -58 -4 -59 -4 -30 10 27 13 -12 14 -350 9
-209 -3 -377 -2 -373 1 6 7 335 28 618 40 129 6 160 10 140 18 -21 9 -9 12 75
19 122 10 455 24 628 26 l127 2 0 -125z m-1000 -115 c-81 -12 -158 -11 -165 0
-4 6 34 10 107 9 97 -2 105 -3 58 -9z m-262 -7 c-26 -2 -71 -2 -100 0 -29 2
-8 3 47 3 55 0 79 -1 53 -3z m-2780 -330 c-10 -2 -26 -2 -35 0 -10 3 -2 5 17
5 19 0 27 -2 18 -5z m2720 -430 c-10 -2 -26 -2 -35 0 -10 3 -2 5 17 5 19 0 27
-2 18 -5z"/>
<path d="M1698 9603 c7 -3 16 -2 19 1 4 3 -2 6 -13 5 -11 0 -14 -3 -6 -6z"/>
<path d="M1700 8970 c-43 -6 -42 -6 28 -13 199 -20 218 -20 202 -4 -17 17
-151 26 -230 17z"/>
<path d="M1368 8893 c7 -3 16 -2 19 1 4 3 -2 6 -13 5 -11 0 -14 -3 -6 -6z"/>
<path d="M1448 8753 c6 -2 18 -2 25 0 6 3 1 5 -13 5 -14 0 -19 -2 -12 -5z"/>
<path d="M1628 8743 c6 -2 18 -2 25 0 6 3 1 5 -13 5 -14 0 -19 -2 -12 -5z"/>
<path d="M1418 8403 c6 -2 18 -2 25 0 6 3 1 5 -13 5 -14 0 -19 -2 -12 -5z"/>
<path d="M1533 7463 c20 -2 54 -2 75 0 20 2 3 4 -38 4 -41 0 -58 -2 -37 -4z"/>
<path d="M7443 5253 c20 -2 54 -2 75 0 20 2 3 4 -38 4 -41 0 -58 -2 -37 -4z"/>
<path d="M7408 4313 c7 -3 16 -2 19 1 4 3 -2 6 -13 5 -11 0 -14 -3 -6 -6z"/>
<path d="M7473 4313 c15 -2 37 -2 50 0 12 2 0 4 -28 4 -27 0 -38 -2 -22 -4z"/>
<path d="M7110 3768 c0 -4 9 -12 19 -18 26 -13 241 -13 241 0 0 6 -19 10 -42
11 -24 0 -82 4 -130 7 -49 4 -88 4 -88 0z"/>
<path d="M6155 11650 l-70 -6 88 -4 c48 -3 87 -2 87 2 0 4 12 9 28 11 41 6
-53 4 -133 -3z"/>
<path d="M6058 11633 c7 -3 16 -2 19 1 4 3 -2 6 -13 5 -11 0 -14 -3 -6 -6z"/>
<path d="M6430 11610 c-25 -5 -119 -18 -210 -30 -91 -13 -169 -27 -174 -31 -6
-5 0 -9 14 -9 46 0 485 62 500 71 18 10 -65 10 -130 -1z"/>
<path d="M4078 11503 c7 -3 16 -2 19 1 4 3 -2 6 -13 5 -11 0 -14 -3 -6 -6z"/>
<path d="M3008 11213 c6 -2 18 -2 25 0 6 3 1 5 -13 5 -14 0 -19 -2 -12 -5z"/>
<path d="M3308 11213 c6 -2 18 -2 25 0 6 3 1 5 -13 5 -14 0 -19 -2 -12 -5z"/>
<path d="M3060 11184 c-26 -6 -420 -34 -540 -38 -117 -5 -291 -24 -300 -34 -3
-2 33 -2 80 2 336 26 519 36 610 36 74 0 125 5 175 19 63 17 66 19 30 19 -22
0 -47 -2 -55 -4z"/>
<path d="M3338 11133 c7 -3 16 -2 19 1 4 3 -2 6 -13 5 -11 0 -14 -3 -6 -6z"/>
<path d="M2470 11004 c-14 -1 -105 -8 -202 -15 -98 -7 -178 -15 -178 -18 0
-12 426 16 450 30 15 8 -12 10 -70 3z"/>
<path d="M5528 10953 c7 -3 16 -2 19 1 4 3 -2 6 -13 5 -11 0 -14 -3 -6 -6z"/>
<path d="M2263 10943 c9 -2 23 -2 30 0 6 3 -1 5 -18 5 -16 0 -22 -2 -12 -5z"/>
<path d="M2118 10713 c6 -2 18 -2 25 0 6 3 1 5 -13 5 -14 0 -19 -2 -12 -5z"/>
<path d="M5990 10236 c-188 -9 -199 -11 -130 -18 48 -5 139 -2 255 8 294 25
244 29 -125 10z"/>
<path d="M2093 10171 c-61 -3 -115 -9 -119 -13 -8 -9 203 1 261 12 40 8 40 8
5 7 -19 0 -85 -3 -147 -6z"/>
<path d="M2288 10173 c6 -2 18 -2 25 0 6 3 1 5 -13 5 -14 0 -19 -2 -12 -5z"/>
<path d="M5763 10093 c9 -2 25 -2 35 0 9 3 1 5 -18 5 -19 0 -27 -2 -17 -5z"/>
<path d="M903 9283 c9 -2 23 -2 30 0 6 3 -1 5 -18 5 -16 0 -22 -2 -12 -5z"/>
<path d="M3298 2623 c6 -2 18 -2 25 0 6 3 1 5 -13 5 -14 0 -19 -2 -12 -5z"/>
<path d="M6918 2553 c23 -2 59 -2 80 0 20 2 1 4 -43 4 -44 0 -61 -2 -37 -4z"/>
<path d="M2895 2489 c-49 -5 -99 -10 -110 -13 -33 -6 324 6 395 14 97 11 -168
10 -285 -1z"/>
<path d="M6050 2270 c-15 -5 2 -6 45 -3 39 3 72 7 74 9 8 8 -95 2 -119 -6z"/>
<path d="M6603 2153 c9 -2 23 -2 30 0 6 3 -1 5 -18 5 -16 0 -22 -2 -12 -5z"/>
<path d="M6608 1763 c18 -2 45 -2 60 0 15 2 0 4 -33 4 -33 0 -45 -2 -27 -4z"/>
<path d="M6633 1736 c-67 -7 -126 -15 -129 -19 -4 -4 0 -7 8 -7 30 0 403 30
418 34 36 9 -186 3 -297 -8z"/>
<path d="M6600 1594 c-80 -7 -235 -15 -345 -19 -173 -6 -356 -28 -342 -41 2
-3 112 5 243 15 131 11 293 22 359 25 113 4 295 24 304 32 6 6 -58 2 -219 -12z"/>
<path d="M5883 1493 c15 -2 39 -2 55 0 15 2 2 4 -28 4 -30 0 -43 -2 -27 -4z"/>
<path d="M2693 1353 c15 -2 37 -2 50 0 12 2 0 4 -28 4 -27 0 -38 -2 -22 -4z"/>
<path d="M2475 1340 l-60 -7 60 0 c33 0 89 3 125 7 l65 7 -65 0 c-36 0 -92 -3
-125 -7z"/>
<path d="M2869 1166 c-2 -2 -80 -14 -172 -26 -194 -25 -262 -42 -147 -35 41 2
161 17 265 33 162 25 180 30 124 31 -36 1 -68 -1 -70 -3z"/>
<path d="M2797 1068 c6 -11 63 -9 88 2 14 7 4 9 -37 7 -31 -1 -54 -5 -51 -9z"/>
<path d="M3623 1053 c9 -2 23 -2 30 0 6 3 -1 5 -18 5 -16 0 -22 -2 -12 -5z"/>
<path d="M3200 1036 l-245 -12 115 -8 c127 -9 239 -4 400 17 97 13 100 14 40
14 -36 0 -175 -5 -310 -11z"/>
<path d="M3815 1034 l-160 -13 165 6 c91 3 185 8 210 13 l45 7 -50 0 c-27 0
-122 -6 -210 -13z"/>
<path d="M4558 1043 c7 -3 16 -2 19 1 4 3 -2 6 -13 5 -11 0 -14 -3 -6 -6z"/>
<path d="M4125 1024 c-444 -27 -1018 -68 -1006 -72 7 -2 122 1 255 7 425 20
820 41 866 45 29 3 38 2 25 -3 -11 -5 -105 -16 -210 -25 -248 -22 -285 -26
-285 -36 0 -22 737 45 780 71 9 5 -28 9 -100 10 -112 3 -113 3 -40 9 l75 6
-75 1 c-41 0 -169 -6 -285 -13z"/>
<path d="M3513 1013 c26 -2 67 -2 90 0 23 2 2 3 -48 3 -49 0 -68 -1 -42 -3z"/>
<path d="M2843 953 c15 -2 37 -2 50 0 12 2 0 4 -28 4 -27 0 -38 -2 -22 -4z"/>
<path d="M3028 943 c12 -2 32 -2 45 0 12 2 2 4 -23 4 -25 0 -35 -2 -22 -4z"/>
<path d="M3350 885 c-251 -18 -286 -23 -195 -24 99 -1 605 34 630 44 23 8
-148 1 -435 -20z"/>
</g>
</svg>
