<?xml version="1.0" encoding="UTF-8"?>
<svg xmlns="http://www.w3.org/2000/svg" xmlns:xlink="http://www.w3.org/1999/xlink" width="37pt" height="37pt" viewBox="0 0 37 37" version="1.1">
<g id="surface1606818">
<path style="fill-rule:nonzero;fill:rgb(100%,83.921569%,72.941176%);fill-opacity:1;stroke-width:10;stroke-linecap:butt;stroke-linejoin:round;stroke:rgb(80%,80%,80%);stroke-opacity:1;stroke-miterlimit:10;" d="M 85.507735 168.357018 C 39.742274 168.357018 2.639287 131.254031 2.639287 85.507735 C 2.639287 39.742274 39.742274 2.639287 85.507735 2.639287 C 131.254031 2.639287 168.357018 39.742274 168.357018 85.507735 C 168.357018 131.254031 131.254031 168.357018 85.507735 168.357018 Z M 85.507735 168.357018 " transform="matrix(0.203825,0,0,0.203825,1.079236,1.079236)"/>
<path style="fill-rule:nonzero;fill:rgb(100%,100%,100%);fill-opacity:1;stroke-width:10;stroke-linecap:butt;stroke-linejoin:round;stroke:rgb(80%,80%,80%);stroke-opacity:1;stroke-miterlimit:10;" d="M 27.151023 86.504303 C 27.151023 87.596695 26.250279 88.497439 25.157887 88.497439 L 21.612406 88.497439 C 20.500849 88.497439 19.600105 87.596695 19.600105 86.504303 L 19.600105 84.338684 C 19.600105 83.227128 20.500849 82.326384 21.612406 82.326384 L 25.177052 82.326384 C 26.288608 82.326384 27.189352 83.227128 27.189352 84.338684 L 27.189352 86.504303 Z M 37.499997 91.736284 C 37.499997 92.84784 36.599253 93.748584 35.506861 93.748584 L 31.961379 93.748584 C 30.868988 93.748584 29.949079 92.84784 29.949079 91.736284 L 29.949079 79.221692 C 29.949079 78.110135 30.868988 77.209391 31.961379 77.209391 L 35.54519 77.209391 C 36.637582 77.209391 37.538326 78.110135 37.538326 79.221692 L 37.538326 91.736284 Z M 37.499997 91.736284 " transform="matrix(0.203825,0,0,0.203825,1.079236,1.079236)"/>
<path style="fill-rule:nonzero;fill:rgb(100%,100%,100%);fill-opacity:1;stroke-width:10;stroke-linecap:butt;stroke-linejoin:round;stroke:rgb(80%,80%,80%);stroke-opacity:1;stroke-miterlimit:10;" d="M 47.868135 94.342692 C 47.868135 95.454249 46.967391 96.354993 45.855834 96.354993 L 42.291188 96.354993 C 41.179632 96.354993 40.278888 95.454249 40.278888 94.342692 L 40.278888 76.653613 C 40.278888 75.542057 41.179632 74.641313 42.291188 74.641313 L 45.855834 74.641313 C 46.967391 74.641313 47.868135 75.542057 47.868135 76.653613 Z M 58.217108 99.536344 C 58.217108 100.628735 57.316364 101.529479 56.204808 101.529479 L 52.640162 101.529479 C 51.528605 101.529479 50.627861 100.628735 50.627861 99.536344 L 50.627861 71.479126 C 50.627861 70.36757 51.528605 69.466826 52.640162 69.466826 L 56.204808 69.466826 C 57.316364 69.466826 58.217108 70.36757 58.217108 71.479126 Z M 58.217108 99.536344 " transform="matrix(0.203825,0,0,0.203825,1.079236,1.079236)"/>
<path style="fill-rule:nonzero;fill:rgb(100%,100%,100%);fill-opacity:1;stroke-width:10;stroke-linecap:butt;stroke-linejoin:round;stroke:rgb(80%,80%,80%);stroke-opacity:1;stroke-miterlimit:10;" d="M 68.566082 109.885317 C 68.566082 110.977709 67.665338 111.878453 66.553782 111.878453 L 62.989135 111.878453 C 61.896743 111.878453 60.976835 110.977709 60.976835 109.885317 L 60.976835 61.110988 C 60.976835 60.018596 61.896743 59.117852 62.989135 59.117852 L 66.553782 59.117852 C 67.665338 59.117852 68.566082 60.018596 68.566082 61.110988 Z M 78.915056 115.059804 C 78.915056 116.152196 78.014312 117.05294 76.92192 117.05294 L 73.338109 117.05294 C 72.245717 117.05294 71.344973 116.152196 71.344973 115.059804 L 71.344973 55.936501 C 71.344973 54.84411 72.245717 53.943366 73.338109 53.943366 L 76.92192 53.943366 C 78.014312 53.943366 78.915056 54.84411 78.915056 55.936501 Z M 78.915056 115.059804 " transform="matrix(0.203825,0,0,0.203825,1.079236,1.079236)"/>
<path style="fill-rule:nonzero;fill:rgb(100%,100%,100%);fill-opacity:1;stroke-width:10;stroke-linecap:butt;stroke-linejoin:round;stroke:rgb(80%,80%,80%);stroke-opacity:1;stroke-miterlimit:10;" d="M 89.283194 130.583264 C 89.283194 131.694821 88.363285 132.595565 87.270894 132.595565 L 83.687082 132.595565 C 82.594691 132.595565 81.693947 131.694821 81.693947 130.583264 L 81.693947 40.413041 C 81.693947 39.301485 82.594691 38.400741 83.687082 38.400741 L 87.270894 38.400741 C 88.363285 38.400741 89.283194 39.301485 89.283194 40.413041 Z M 89.283194 130.583264 " transform="matrix(0.203825,0,0,0.203825,1.079236,1.079236)"/>
<path style="fill-rule:nonzero;fill:rgb(100%,100%,100%);fill-opacity:1;stroke-width:10;stroke-linecap:butt;stroke-linejoin:round;stroke:rgb(80%,80%,80%);stroke-opacity:1;stroke-miterlimit:10;" d="M 99.632168 109.885317 C 99.632168 110.977709 98.731424 111.878453 97.619867 111.878453 L 94.055221 111.878453 C 92.943664 111.878453 92.04292 110.977709 92.04292 109.885317 L 92.04292 61.110988 C 92.04292 60.018596 92.943664 59.117852 94.055221 59.117852 L 97.619867 59.117852 C 98.731424 59.117852 99.632168 60.018596 99.632168 61.110988 Z M 109.981141 99.536344 C 109.981141 100.628735 109.080397 101.529479 107.968841 101.529479 L 104.404194 101.529479 C 103.292638 101.529479 102.391894 100.628735 102.391894 99.536344 L 102.391894 71.479126 C 102.391894 70.36757 103.292638 69.466826 104.404194 69.466826 L 107.968841 69.466826 C 109.080397 69.466826 109.981141 70.36757 109.981141 71.479126 Z M 109.981141 99.536344 " transform="matrix(0.203825,0,0,0.203825,1.079236,1.079236)"/>
<path style="fill-rule:nonzero;fill:rgb(100%,100%,100%);fill-opacity:1;stroke-width:10;stroke-linecap:butt;stroke-linejoin:round;stroke:rgb(80%,80%,80%);stroke-opacity:1;stroke-miterlimit:10;" d="M 120.330115 104.71083 C 120.330115 105.803222 119.429371 106.703966 118.336979 106.703966 L 114.753168 106.703966 C 113.660776 106.703966 112.760032 105.803222 112.760032 104.71083 L 112.760032 66.30464 C 112.760032 65.193083 113.660776 64.292339 114.753168 64.292339 L 118.336979 64.292339 C 119.429371 64.292339 120.330115 65.193083 120.330115 66.30464 Z M 130.679088 94.342692 C 130.679088 95.454249 129.778344 96.354993 128.685953 96.354993 L 125.102141 96.354993 C 124.00975 96.354993 123.109006 95.454249 123.109006 94.342692 L 123.109006 76.653613 C 123.109006 75.542057 124.00975 74.641313 125.102141 74.641313 L 128.685953 74.641313 C 129.778344 74.641313 130.679088 75.542057 130.679088 76.653613 Z M 130.679088 94.342692 " transform="matrix(0.203825,0,0,0.203825,1.079236,1.079236)"/>
<path style="fill-rule:nonzero;fill:rgb(100%,100%,100%);fill-opacity:1;stroke-width:10;stroke-linecap:butt;stroke-linejoin:round;stroke:rgb(80%,80%,80%);stroke-opacity:1;stroke-miterlimit:10;" d="M 151.3962 86.561797 C 151.3962 87.673354 150.495456 88.574098 149.3839 88.574098 L 145.819253 88.574098 C 144.707697 88.574098 143.806953 87.673354 143.806953 86.561797 L 143.806953 84.396179 C 143.806953 83.303787 144.707697 82.403043 145.819253 82.403043 L 149.3839 82.403043 C 150.495456 82.403043 151.3962 83.303787 151.3962 84.396179 Z M 141.047227 89.168205 C 141.047227 90.279762 140.146483 91.180506 139.034926 91.180506 L 135.47028 91.180506 C 134.358723 91.180506 133.457979 90.279762 133.457979 89.168205 L 133.457979 81.8281 C 133.457979 80.716544 134.358723 79.8158 135.47028 79.8158 L 139.034926 79.8158 C 140.146483 79.8158 141.047227 80.716544 141.047227 81.8281 Z M 141.047227 89.168205 " transform="matrix(0.203825,0,0,0.203825,1.079236,1.079236)"/>
<path style=" stroke:none;fill-rule:nonzero;fill:rgb(100%,83.921569%,72.941176%);fill-opacity:1;" d="M 35.394531 18.507812 C 35.394531 9.179688 27.832031 1.617188 18.507812 1.617188 C 9.179688 1.617188 1.617188 9.179688 1.617188 18.507812 C 1.617188 27.832031 9.179688 35.394531 18.507812 35.394531 C 27.832031 35.394531 35.394531 27.832031 35.394531 18.507812 Z M 35.394531 18.507812 "/>
<path style=" stroke:none;fill-rule:nonzero;fill:rgb(100%,100%,100%);fill-opacity:1;" d="M 6.613281 18.710938 C 6.613281 18.933594 6.429688 19.117188 6.207031 19.117188 L 5.484375 19.117188 C 5.257812 19.117188 5.074219 18.933594 5.074219 18.710938 L 5.074219 18.269531 C 5.074219 18.042969 5.257812 17.859375 5.484375 17.859375 L 6.210938 17.859375 C 6.4375 17.859375 6.621094 18.042969 6.621094 18.269531 L 6.621094 18.710938 Z M 8.722656 19.777344 C 8.722656 20.003906 8.539062 20.1875 8.316406 20.1875 L 7.59375 20.1875 C 7.371094 20.1875 7.183594 20.003906 7.183594 19.777344 L 7.183594 17.226562 C 7.183594 17 7.371094 16.816406 7.59375 16.816406 L 8.324219 16.816406 C 8.546875 16.816406 8.730469 17 8.730469 17.226562 L 8.730469 19.777344 Z M 8.722656 19.777344 "/>
<path style=" stroke:none;fill-rule:nonzero;fill:rgb(100%,100%,100%);fill-opacity:1;" d="M 10.835938 20.308594 C 10.835938 20.535156 10.652344 20.71875 10.425781 20.71875 L 9.699219 20.71875 C 9.472656 20.71875 9.289062 20.535156 9.289062 20.308594 L 9.289062 16.703125 C 9.289062 16.476562 9.472656 16.292969 9.699219 16.292969 L 10.425781 16.292969 C 10.652344 16.292969 10.835938 16.476562 10.835938 16.703125 Z M 12.945312 21.367188 C 12.945312 21.589844 12.761719 21.773438 12.535156 21.773438 L 11.808594 21.773438 C 11.582031 21.773438 11.398438 21.589844 11.398438 21.367188 L 11.398438 15.648438 C 11.398438 15.421875 11.582031 15.238281 11.808594 15.238281 L 12.535156 15.238281 C 12.761719 15.238281 12.945312 15.421875 12.945312 15.648438 Z M 12.945312 21.367188 "/>
<path style=" stroke:none;fill-rule:nonzero;fill:rgb(100%,100%,100%);fill-opacity:1;" d="M 15.054688 23.476562 C 15.054688 23.699219 14.871094 23.882812 14.644531 23.882812 L 13.917969 23.882812 C 13.695312 23.882812 13.507812 23.699219 13.507812 23.476562 L 13.507812 13.535156 C 13.507812 13.3125 13.695312 13.128906 13.917969 13.128906 L 14.644531 13.128906 C 14.871094 13.128906 15.054688 13.3125 15.054688 13.535156 Z M 17.164062 24.53125 C 17.164062 24.753906 16.980469 24.9375 16.757812 24.9375 L 16.027344 24.9375 C 15.804688 24.9375 15.621094 24.753906 15.621094 24.53125 L 15.621094 12.480469 C 15.621094 12.257812 15.804688 12.074219 16.027344 12.074219 L 16.757812 12.074219 C 16.980469 12.074219 17.164062 12.257812 17.164062 12.480469 Z M 17.164062 24.53125 "/>
<path style=" stroke:none;fill-rule:nonzero;fill:rgb(100%,100%,100%);fill-opacity:1;" d="M 19.277344 27.695312 C 19.277344 27.921875 19.089844 28.105469 18.867188 28.105469 L 18.136719 28.105469 C 17.914062 28.105469 17.730469 27.921875 17.730469 27.695312 L 17.730469 9.316406 C 17.730469 9.089844 17.914062 8.90625 18.136719 8.90625 L 18.867188 8.90625 C 19.089844 8.90625 19.277344 9.089844 19.277344 9.316406 Z M 19.277344 27.695312 "/>
<path style=" stroke:none;fill-rule:nonzero;fill:rgb(100%,100%,100%);fill-opacity:1;" d="M 21.386719 23.476562 C 21.386719 23.699219 21.203125 23.882812 20.976562 23.882812 L 20.25 23.882812 C 20.023438 23.882812 19.839844 23.699219 19.839844 23.476562 L 19.839844 13.535156 C 19.839844 13.3125 20.023438 13.128906 20.25 13.128906 L 20.976562 13.128906 C 21.203125 13.128906 21.386719 13.3125 21.386719 13.535156 Z M 23.496094 21.367188 C 23.496094 21.589844 23.3125 21.773438 23.085938 21.773438 L 22.359375 21.773438 C 22.132812 21.773438 21.949219 21.589844 21.949219 21.367188 L 21.949219 15.648438 C 21.949219 15.421875 22.132812 15.238281 22.359375 15.238281 L 23.085938 15.238281 C 23.3125 15.238281 23.496094 15.421875 23.496094 15.648438 Z M 23.496094 21.367188 "/>
<path style=" stroke:none;fill-rule:nonzero;fill:rgb(100%,100%,100%);fill-opacity:1;" d="M 25.605469 22.421875 C 25.605469 22.644531 25.421875 22.828125 25.199219 22.828125 L 24.46875 22.828125 C 24.246094 22.828125 24.0625 22.644531 24.0625 22.421875 L 24.0625 14.59375 C 24.0625 14.367188 24.246094 14.183594 24.46875 14.183594 L 25.199219 14.183594 C 25.421875 14.183594 25.605469 14.367188 25.605469 14.59375 Z M 27.714844 20.308594 C 27.714844 20.535156 27.53125 20.71875 27.308594 20.71875 L 26.578125 20.71875 C 26.355469 20.71875 26.171875 20.535156 26.171875 20.308594 L 26.171875 16.703125 C 26.171875 16.476562 26.355469 16.292969 26.578125 16.292969 L 27.308594 16.292969 C 27.53125 16.292969 27.714844 16.476562 27.714844 16.703125 Z M 27.714844 20.308594 "/>
<path style=" stroke:none;fill-rule:nonzero;fill:rgb(100%,100%,100%);fill-opacity:1;" d="M 31.9375 18.722656 C 31.9375 18.949219 31.753906 19.132812 31.527344 19.132812 L 30.800781 19.132812 C 30.574219 19.132812 30.390625 18.949219 30.390625 18.722656 L 30.390625 18.28125 C 30.390625 18.058594 30.574219 17.875 30.800781 17.875 L 31.527344 17.875 C 31.753906 17.875 31.9375 18.058594 31.9375 18.28125 Z M 29.828125 19.253906 C 29.828125 19.480469 29.644531 19.664062 29.417969 19.664062 L 28.691406 19.664062 C 28.464844 19.664062 28.28125 19.480469 28.28125 19.253906 L 28.28125 17.757812 C 28.28125 17.53125 28.464844 17.347656 28.691406 17.347656 L 29.417969 17.347656 C 29.644531 17.347656 29.828125 17.53125 29.828125 17.757812 Z M 29.828125 19.253906 "/>
</g>
</svg>
