<?xml version="1.0" encoding="UTF-8"?>
<svg xmlns="http://www.w3.org/2000/svg" xmlns:xlink="http://www.w3.org/1999/xlink" width="28pt" height="28pt" viewBox="0 0 28 28" version="1.1">
<g id="surface1305775">
<path style=" stroke:none;fill-rule:nonzero;fill:rgb(99.607843%,82.745098%,18.823529%);fill-opacity:1;" d="M 27.566406 14 C 27.566406 6.507812 21.492188 0.433594 14 0.433594 C 6.507812 0.433594 0.433594 6.507812 0.433594 14 C 0.433594 21.492188 6.507812 27.566406 14 27.566406 C 21.492188 27.566406 27.566406 21.492188 27.566406 14 Z M 27.566406 14 "/>
<path style=" stroke:none;fill-rule:nonzero;fill:rgb(100%,100%,100%);fill-opacity:1;" d="M 22.761719 15.054688 L 22.761719 12.945312 L 20.757812 12.316406 C 20.589844 11.636719 20.320312 10.996094 19.964844 10.414062 L 20.941406 8.546875 L 19.445312 7.054688 L 17.578125 8.027344 C 16.996094 7.679688 16.363281 7.414062 15.683594 7.246094 L 15.050781 5.234375 L 12.933594 5.234375 L 12.300781 7.246094 C 11.625 7.414062 10.988281 7.679688 10.40625 8.027344 L 8.554688 7.054688 L 7.054688 8.554688 L 8.027344 10.417969 C 7.679688 11.003906 7.40625 11.636719 7.234375 12.320312 L 5.234375 12.949219 L 5.234375 15.0625 L 7.222656 15.691406 C 7.394531 16.375 7.660156 17.019531 8.015625 17.609375 L 7.054688 19.445312 L 8.546875 20.941406 L 10.390625 19.976562 C 10.980469 20.332031 11.632812 20.605469 12.320312 20.777344 L 12.945312 22.753906 L 15.0625 22.753906 L 15.683594 20.777344 C 16.375 20.605469 17.019531 20.332031 17.613281 19.976562 L 19.457031 20.941406 L 20.949219 19.445312 L 19.988281 17.597656 C 20.34375 17.007812 20.613281 16.363281 20.78125 15.679688 Z M 14 18.636719 C 11.445312 18.636719 9.375 16.566406 9.375 14.011719 C 9.375 11.457031 11.445312 9.382812 14 9.382812 C 16.554688 9.382812 18.621094 11.457031 18.621094 14.011719 C 18.621094 16.570312 16.554688 18.636719 14 18.636719 Z M 14 18.636719 "/>
</g>
</svg>
