<?xml version="1.0" encoding="UTF-8"?>
<svg xmlns="http://www.w3.org/2000/svg" xmlns:xlink="http://www.w3.org/1999/xlink" width="37pt" height="37pt" viewBox="0 0 37 37" version="1.1">
<g id="surface1606832">
<path style="fill-rule:nonzero;fill:rgb(74.509804%,89.019608%,85.882353%);fill-opacity:1;stroke-width:10;stroke-linecap:butt;stroke-linejoin:round;stroke:rgb(80%,80%,80%);stroke-opacity:1;stroke-miterlimit:10;" d="M 92.349556 21.593241 L 92.349556 148.157355 C 92.349556 155.554954 88.363285 160.748606 82.652185 160.748606 C 80.505731 160.748606 77.190227 159.982015 73.587251 156.30238 L 33.801197 116.669644 C 31.788896 114.906486 30.773164 111.226851 30.773164 108.601278 L 30.773164 62.395027 C 30.773164 59.75029 31.788896 56.032325 33.992844 54.096684 L 73.798063 14.406454 C 76.423636 11.742551 79.604987 10.266864 82.728844 10.266864 C 87.347553 10.266864 92.349556 13.812346 92.349556 21.593241 Z M 25.598677 54.729121 C 24.467956 57.412188 23.988837 60.267738 23.988837 62.510016 L 23.988837 108.486289 C 23.988837 110.747732 24.467956 113.603282 25.579512 116.286349 L 10.343523 116.286349 C 4.632423 116.286349 -0.00545031 111.648476 -0.00545031 105.918211 L -0.00545031 65.078095 C -0.00545031 59.366994 4.632423 54.729121 10.343523 54.729121 Z M 143.63447 58.140449 L 143.63447 64.982271 L 171.001756 64.982271 L 171.001756 71.824092 L 161.323549 71.824092 C 160.671947 82.153901 154.155926 90.83554 146.49002 97.696526 C 152.488592 100.302934 157.528925 101.682797 157.528925 101.682797 L 155.765767 108.313806 C 155.765767 108.313806 148.521485 106.320671 140.625602 102.487718 C 140.127318 102.871013 139.648199 103.254308 139.149915 103.618439 C 128.360152 111.437663 117.608718 116.018042 117.608718 116.018042 L 114.944815 109.712834 C 114.944815 109.712834 124.297221 105.688234 133.975428 98.884742 C 131.062384 97.064089 128.245163 94.975129 125.887897 92.502875 C 122.342415 88.804075 119.697677 84.108707 119.697677 78.665914 L 126.539499 78.665914 C 126.539499 81.923924 128.07268 84.894463 130.832406 87.769177 C 133.189673 90.241432 136.409353 92.48371 139.801517 94.400186 C 147.390764 87.999155 153.715137 80.103271 154.481727 71.824092 L 109.444528 71.824092 L 109.444528 64.982271 L 136.792649 64.982271 L 136.792649 58.140449 Z M 143.63447 58.140449 " transform="matrix(0.203825,0,0,0.203825,1.079236,1.079236)"/>
<path style=" stroke:none;fill-rule:nonzero;fill:rgb(74.509804%,89.019608%,85.882353%);fill-opacity:1;" d="M 17.941406 3.171875 C 17.304688 3.171875 16.65625 3.472656 16.121094 4.015625 L 8.007812 12.105469 C 7.558594 12.5 7.351562 13.257812 7.351562 13.796875 L 7.351562 23.214844 C 7.351562 23.75 7.558594 24.5 7.96875 24.859375 L 16.078125 32.9375 C 16.8125 33.6875 17.488281 33.84375 17.925781 33.84375 C 19.089844 33.84375 19.902344 32.785156 19.902344 31.277344 L 19.902344 5.480469 C 19.902344 3.894531 18.882812 3.171875 17.941406 3.171875 Z M 3.1875 12.234375 C 2.023438 12.234375 1.078125 13.179688 1.078125 14.34375 L 1.078125 22.667969 C 1.078125 23.835938 2.023438 24.78125 3.1875 24.78125 L 6.292969 24.78125 C 6.066406 24.234375 5.96875 23.652344 5.96875 23.191406 L 5.96875 13.820312 C 5.96875 13.363281 6.066406 12.78125 6.296875 12.234375 Z M 28.960938 12.929688 L 28.960938 14.324219 L 23.386719 14.324219 L 23.386719 15.71875 L 32.566406 15.71875 C 32.410156 17.40625 31.121094 19.015625 29.574219 20.320312 C 28.882812 19.929688 28.226562 19.472656 27.746094 18.96875 C 27.183594 18.382812 26.871094 17.777344 26.871094 17.113281 L 25.476562 17.113281 C 25.476562 18.222656 26.015625 19.179688 26.738281 19.933594 C 27.21875 20.4375 27.792969 20.863281 28.386719 21.234375 C 26.414062 22.621094 24.507812 23.441406 24.507812 23.441406 L 25.050781 24.726562 C 25.050781 24.726562 27.242188 23.792969 29.441406 22.199219 C 29.542969 22.125 29.640625 22.046875 29.742188 21.96875 C 31.351562 22.75 32.828125 23.15625 32.828125 23.15625 L 33.1875 21.804688 C 33.1875 21.804688 32.160156 21.523438 30.9375 20.992188 C 32.5 19.59375 33.828125 17.824219 33.960938 15.71875 L 35.933594 15.71875 L 35.933594 14.324219 L 30.355469 14.324219 L 30.355469 12.929688 Z M 28.960938 12.929688 "/>
</g>
</svg>
